<svg xmlns="http://www.w3.org/2000/svg" data-name="Layer 3" viewBox="0 0 64 80" x="0px" y="0px"><title>rescue-helicopter-safety-health-security-mountain</title><path d="M14,10h2V7H26V5H16V4a1,1,0,0,0-2,0V5H4V7H14Z"/><polygon points="18 39 18 37 16 37 16 34 14 34 14 37 12 37 12 39 14 39 14 41 12 41 12 43 14 43 14 45 12 45 12 47 14 47 14 52 16 52 16 47 18 47 18 45 16 45 16 43 18 43 18 41 16 41 16 39 18 39"/><path d="M19,24.116A1.886,1.886,0,0,0,20.884,26h4.468a7.722,7.722,0,0,0,1.576-3.768H20.884A1.886,1.886,0,0,0,19,24.116Z"/><path d="M20,30.961c-.254.02-.508.039-.768.039H10v2H20Z"/><path d="M10,29h9.232a7.71,7.71,0,0,0,3.8-1H20.884a3.884,3.884,0,0,1,0-7.768H27V18a1,1,0,0,1,1-1H44a1,1,0,0,0,1-1V8H42.754l-1.792,6.274A1,1,0,0,1,40,15H15v3a5.006,5.006,0,0,1-5,5H3.08A7.006,7.006,0,0,0,10,29Z"/><path d="M13,18V15H10a7.006,7.006,0,0,0-6.92,6H10A3,3,0,0,0,13,18Z"/><rect x="12" y="11" width="6" height="2"/><path d="M33.414,37l-3.707,3.707A1,1,0,0,1,29,41H27.414l-10,10h6.172l3.707-3.707A1,1,0,0,1,28,47h4a1,1,0,0,1,.707.293L36.414,51H40a1,1,0,0,1,.707.293L50.414,61h9.172l-24-24Z"/><path d="M39.414,56l1,1H42v2H40a1,1,0,0,1-.707-.293L37.586,57H34V55h3.586l2-2H36a1,1,0,0,1-.707-.293L31.586,49H28.414l-3.707,3.707A1,1,0,0,1,24,53H22v2a1,1,0,0,1-.293.707L21.414,56l1,1H26v2H22a1,1,0,0,1-.707-.293L20,57.414l-1.293,1.293-1.414-1.414L20,54.586V53H12.414l-8,8H47.586L41,54.414Z"/><path d="M31.654,24.527A5,5,0,0,0,31,27v.023L33,27a2.982,2.982,0,0,1,.391-1.48Z"/><path d="M41,27v-.047L39,27a3.01,3.01,0,0,1-.4,1.5l1.732,1A5,5,0,0,0,41,27Z"/><path d="M36.007,30l.008,2a5.021,5.021,0,0,0,2.494-.675l-1-1.73A3.017,3.017,0,0,1,36.007,30Z"/><path d="M35.955,22a5,5,0,0,0-2.49.69l1.015,1.723a3,3,0,0,1,1.5-.413Z"/><path d="M33.516,31.339l1-1.735a3.027,3.027,0,0,1-1.105-1.094l-1.724,1.013A5.05,5.05,0,0,0,33.516,31.339Z"/><path d="M40.3,24.451a5.019,5.019,0,0,0-1.844-1.8l-.984,1.74a3.042,3.042,0,0,1,1.109,1.087Z"/><path d="M51.516,10.339l1-1.735A3.027,3.027,0,0,1,51.407,7.51L49.683,8.523A5.05,5.05,0,0,0,51.516,10.339Z"/><path d="M53.975,3l-.02-2a5,5,0,0,0-2.49.69L52.48,3.413A3,3,0,0,1,53.975,3Z"/><path d="M51.391,4.52l-1.737-.993A5,5,0,0,0,49,6v.023L51,6A2.982,2.982,0,0,1,51.391,4.52Z"/><path d="M56.509,10.326l-1-1.73a3.017,3.017,0,0,1-1.5.4l.008,2A5.021,5.021,0,0,0,56.509,10.326Z"/><path d="M56.583,4.473,58.3,3.451a5.019,5.019,0,0,0-1.844-1.805l-.984,1.74A3.042,3.042,0,0,1,56.583,4.473Z"/><path d="M59,6V5.953L57,6a3.01,3.01,0,0,1-.4,1.5l1.732,1A5,5,0,0,0,59,6Z"/><path d="M52.007,42l.008,2a5.021,5.021,0,0,0,2.494-.675l-1-1.73A3.017,3.017,0,0,1,52.007,42Z"/><path d="M56.3,36.451a5.019,5.019,0,0,0-1.844-1.8l-.984,1.74a3.042,3.042,0,0,1,1.109,1.087Z"/><path d="M57,39v-.047L55,39a3.01,3.01,0,0,1-.4,1.5l1.732,1A5,5,0,0,0,57,39Z"/><path d="M49.407,40.51l-1.724,1.013a5.05,5.05,0,0,0,1.833,1.816l1-1.735A3.027,3.027,0,0,1,49.407,40.51Z"/><path d="M49.391,37.52l-1.737-.993A5,5,0,0,0,47,39v.023L49,39A2.982,2.982,0,0,1,49.391,37.52Z"/><path d="M51.955,34a5,5,0,0,0-2.49.69l1.015,1.723a3,3,0,0,1,1.5-.413Z"/><path d="M58.007,27l.008,2a5.021,5.021,0,0,0,2.494-.675l-1-1.73A3.017,3.017,0,0,1,58.007,27Z"/><path d="M61,24a3.01,3.01,0,0,1-.4,1.5l1.732,1A5,5,0,0,0,63,24v-.047Z"/><path d="M57.955,19a5,5,0,0,0-2.49.69l1.015,1.723a3,3,0,0,1,1.5-.413Z"/><path d="M60.458,19.646l-.984,1.74a3.042,3.042,0,0,1,1.109,1.087L62.3,21.451A5.019,5.019,0,0,0,60.458,19.646Z"/><path d="M53,24v.023L55,24a2.982,2.982,0,0,1,.391-1.48l-1.737-.993A5,5,0,0,0,53,24Z"/><path d="M55.516,28.339l1-1.735a3.027,3.027,0,0,1-1.105-1.094l-1.724,1.013A5.05,5.05,0,0,0,55.516,28.339Z"/><text x="0" y="79" fill="#000000" font-size="5px" font-weight="bold" font-family="'Helvetica Neue', Helvetica, Arial-Unicode, Arial, Sans-serif">Created by Manthana Chaiwong</text><text x="0" y="84" fill="#000000" font-size="5px" font-weight="bold" font-family="'Helvetica Neue', Helvetica, Arial-Unicode, Arial, Sans-serif">from the Noun Project</text></svg>